PathFileType	4	(X/Y/Z)	Patient4_TMGait_0pt4_01_left_41.trc.trc
DataRate	CameraRate	NumFrames	NumMarkers	Units	OrigDataRate	OrigDataStartFrame	OrigNumFrames
76.502732240437	76.502732240437	6	33	mm	76.502732240437	106	       141
Frame#	Time	Sacral			L.Shoulder			Chest			R.Shoulder			Neck			R.ASIS			L.ASIS			R.Thigh.Superior			R.Thigh.Lateral			R.Thigh.Inferior			R.Patella			L.Thigh.Superior			L.Thigh.Lateral			L.Thigh.Inferior			L.Patella			L.Shank.Superior			L.Shank.Lateral			L.Shank.Inferior			R.Shank.Superior			R.Shank.Lateral			R.Shank.Inferior			R.Heel			R.Midfoot.Superior			R.Midfoot.Lateral			R.Toe			L.Heel			L.Midfoot.Lateral			L.Midfoot.Superior			L.Toe			L.Elbow			L.Wrist			R.Elbow			R.Wrist			
		X1	Y1	Z1	X2	Y2	Z2	X3	Y3	Z3	X4	Y4	Z4	X5	Y5	Z5	X6	Y6	Z6	X7	Y7	Z7	X8	Y8	Z8	X9	Y9	Z9	X10	Y10	Z10	X11	Y11	Z11	X12	Y12	Z12	X13	Y13	Z13	X14	Y14	Z14	X15	Y15	Z15	X16	Y16	Z16	X17	Y17	Z17	X18	Y18	Z18	X19	Y19	Z19	X20	Y20	Z20	X21	Y21	Z21	X22	Y22	Z22	X23	Y23	Z23	X24	Y24	Z24	X25	Y25	Z25	X26	Y26	Z26	X27	Y27	Z27	X28	Y28	Z28	X29	Y29	Z29	X30	Y30	Z30	X31	Y31	Z31	X32	Y32	Z32	X33	Y33	Z33	

106	52.892500000000	822.139427764208	1006.049544427111	539.671712822734	981.617806875876	1438.545313801990	348.552579488830	1099.917574511957	1370.771281511461	499.386516608808	1031.758962678788	1441.783062915652	681.133119460784	976.547213832961	1498.006390141136	507.405651734589	1059.368598247922	945.027717121738	635.789963939056	1021.581220088822	970.164100615334	364.081624499636	1084.291831803392	739.438370049125	603.901632228184	998.449824663518	633.446071697132	668.279267899595	1068.287599362938	578.734417477213	585.657999121162	1061.802311608125	493.084092614086	591.723740379768	1102.206231208776	783.328538594166	379.924616105623	1050.361938315710	658.121243044467	300.087060542258	1156.360771108195	596.819704883755	352.607486111330	1178.355112300513	522.713890734502	342.014945090662	1143.940265843487	448.305092961277	332.595271457531	1041.565214874924	342.922231935616	285.446335081043	1102.107559129095	222.800124550200	331.921914993009	1033.263698198893	403.971453353152	597.739848756116	959.692008227933	300.347455447945	658.258547357494	1000.769221660557	206.228758303953	591.757873102329	865.441223938111	42.646876207950	555.516757324212	1035.448567667821	96.811081430000	596.091110141875	947.209912003694	36.599111196891	632.827696590816	1155.385623906907	45.493705798282	625.406879022821	979.234873345285	64.805580172759	373.740043259803	1044.145510884611	62.291168862762	286.397753274702	1130.694057226447	123.750025556838	304.226089410742	1252.718840688714	72.957442290377	260.475067942139	936.710699770089	1084.478461985382	241.888923614517	1006.660937594882	834.830072843312	209.234840331613	1084.369891242512	1104.403021015621	818.016354833727	1279.715704700746	934.154927566190	800.025603129744	
107	52.905571428571	821.299060414433	1006.245988244433	540.536388427044	980.660027315545	1438.367189771371	348.743240895399	1099.768910219448	1370.204501281782	498.764709326921	1032.940642646423	1441.330137311739	681.013077527627	976.847695150712	1497.738831427398	507.709595433225	1058.768357325139	944.790560821546	635.476041605822	1019.838139172070	969.802195264927	363.807113421119	1081.732212605849	738.916111052429	603.721032692551	995.292748713804	633.480697247673	668.639113767164	1064.119849094233	578.335365184840	585.804930946981	1056.985859653226	492.987496639103	592.029014069139	1099.383518427149	782.736703072992	379.821854554307	1047.956336309466	658.094253319531	299.041266491234	1153.361508521424	596.514243928721	352.703257947142	1176.565175602618	524.586152427467	341.814638488173	1145.765356208072	450.599504208937	331.684614300927	1049.937816763068	339.864267308552	283.177098889673	1117.115185549595	222.924202246087	329.411329976907	1028.337088062297	403.823013561473	597.972144560455	954.667103543226	300.272670797740	658.433870212972	995.648175465065	206.140661170541	591.913275534747	860.183567871491	42.597359108262	555.587455807080	1030.212110612935	96.812649656670	596.183142650154	941.937320142827	36.568725414485	632.863830089665	1150.109702931283	45.462312437160	625.469450405377	1002.796887512143	58.947293187034	370.030293863169	1068.737339574195	58.874508626800	283.364333434232	1152.327984686055	124.228543540719	301.570928929511	1276.958006808233	78.620802281273	259.412880484052	928.671524236916	1085.269506132283	242.646283110158	990.111210878202	833.692223371725	209.548500433491	1088.917838884090	1104.642526614832	817.801834857444	1288.732517325321	940.046746953726	797.708538590243	
108	52.918642857143	820.476664127187	1006.384170179172	541.115247925944	979.831893827560	1438.180040417148	348.735179259321	1099.619850730132	1369.615649466266	498.031219298365	1033.957965861132	1440.788109655829	680.740217506007	977.121117585622	1497.440432377571	507.811493185783	1058.181145392632	944.548782717839	635.060618937926	1018.295617121175	969.353420877304	363.402715302424	1079.274495987028	738.362288312728	603.525444688688	992.169607274592	633.498814448598	668.890453053532	1060.009004966576	577.920245596306	585.880672454562	1052.237416742968	492.877853245408	592.239908879297	1096.545654875279	781.882100161981	379.674133068623	1045.433233950287	657.866547921147	297.903879741773	1150.312625604510	595.941250060421	352.615364580411	1174.583101830256	526.141383007126	341.629932396078	1147.226954715691	452.780139760642	330.832304484366	1057.891253533415	337.279083690096	280.971610108886	1131.150698683528	223.712290009878	327.104867239417	1023.436533402852	403.673778950195	598.122241949953	949.663379166862	300.206421251482	658.532933425966	990.539515763122	206.054325047461	592.029837996081	854.921385281426	42.540058376298	555.653816424853	1024.968365870562	96.812306547464	596.259758460858	936.661257170582	36.539408954961	632.895154626419	1144.830865323821	45.449885523303	625.528980804457	1025.076807812104	54.613494382923	366.498291380900	1092.135653486718	56.589337991054	280.662846360565	1172.757000413522	125.470341167789	299.259388266995	1299.691140919417	84.661341700384	259.104756299519	920.739005313782	1086.187767322533	243.343395058112	974.231792698311	833.070798164850	210.045484139070	1093.146726429222	1104.719564471459	817.244993367248	1297.257991840286	945.912872274948	795.072178775116	
109	52.931714285714	819.693093275641	1006.480146313670	541.418367763897	979.115620204377	1438.004063112259	348.523629754923	1099.458750069759	1369.042166699832	497.186930160569	1034.799663517875	1440.202645718000	680.310737684109	977.348077132211	1497.137967852193	507.700948632791	1057.615247304731	944.308326090839	634.543488138564	1016.941057249465	968.858970651727	362.877655527982	1076.919512418157	737.779153440615	603.296401116827	989.068841708121	633.507673837345	669.012443243935	1055.950780499967	577.486126722582	585.870111564370	1047.550876454576	492.751996814898	592.337738141475	1093.805621284234	780.886683894421	379.449738371735	1042.881222286918	657.480565274709	296.744675359694	1147.389976185454	595.225342435233	352.285364155594	1172.577575822818	527.431683242241	341.416358550963	1148.404006927420	454.822390265706	330.025872882388	1065.246352541101	335.197361030713	278.940086920890	1143.946767512679	225.037744669660	325.053902162964	1018.553682063597	403.531387873730	598.180022093604	944.671844023509	300.159372916141	658.551697241451	985.438765987629	205.977582997335	592.102542520840	849.654395845627	42.478243386491	555.714486131230	1019.718082996955	96.813255108662	596.322501861633	931.381225967998	36.512540382477	632.921172773653	1139.548854844766	45.458742503453	625.584470287192	1045.583026706521	51.660454592411	363.307863699044	1113.779503815420	55.309250213755	278.377295225211	1191.514346052144	127.330108315034	297.318547434407	1320.444649094888	90.883748435814	259.398148617214	912.983100343027	1087.229226320039	243.996199819439	959.065370971308	832.899887946480	210.684270515252	1097.047213579657	1104.670843258574	816.335776400126	1305.263432258103	951.763343016233	792.129230565915	
110	52.944785714286	818.971027424122	1006.545088457064	541.459361623535	978.486109559361	1437.851798132897	348.108876151749	1099.274298728109	1368.514815193328	496.231932913242	1035.463229209582	1439.615568915399	679.721314006451	977.511894326019	1496.850707890624	507.374012475989	1057.082369575144	944.071492859076	633.921894913586	1015.766187058613	968.356879991467	362.235737087097	1074.661451514737	737.169913241889	603.008244997392	985.982435536910	633.514677310130	668.989125368030	1051.944024149341	577.031693906979	585.761656742265	1042.924133472949	492.605695437705	592.311882367020	1091.287020066773	779.875032142761	379.115572699061	1040.407882458290	656.974610000696	295.636011953859	1144.765167924047	594.483748684909	351.685686475174	1170.722682079922	528.508118600104	341.130528925359	1149.380701432527	456.684558003258	329.258353654763	1071.828049819450	333.604692858814	277.192282875410	1155.254394985118	226.716331574445	323.310244156020	1013.684650386472	403.402297968738	598.141723346668	939.685197729017	300.142363936978	658.491964981186	980.342598987501	205.916846953562	592.129059309880	844.382744610302	42.415911952566	555.768752366852	1014.462024255170	96.817676504727	596.372611630076	926.096762965854	36.489546533874	632.941686092592	1134.263079726902	45.489172404532	625.635274188827	1063.846988283894	49.865314910047	360.629426192297	1133.106666366410	54.841191389413	276.580239602678	1208.147684409073	129.593666315755	295.763052225107	1338.751680660523	97.016936783221	260.079480938226	905.481389261105	1088.378599980672	244.607761974657	944.649231890714	833.108033960692	211.416121524917	1100.603643062844	1104.532099022450	815.073890499915	1312.721325223565	957.612644814765	788.894208241138	
111	52.957857142857	818.333426044208	1006.583324499699	541.253142867913	977.913915032722	1437.726146133628	347.495442473962	1099.056931067123	1368.054250768417	495.164947859656	1035.954220182051	1439.059733987321	678.969304091901	977.599098710107	1496.588069689545	506.831772216104	1056.597601688901	943.837029672282	633.191777979276	1014.769018076975	967.875366486943	361.476723125569	1072.491685883157	736.537669341445	602.632880140201	982.908405163216	633.526055121617	668.811353760695	1047.992983440113	576.556836384595	585.549206298264	1038.360389780050	492.433423733343	592.160053727771	1089.112243575576	778.959300886362	378.643950796216	1038.134287275883	656.380804214964	294.640299072797	1142.590087816430	593.812919758121	350.823001320620	1169.179079830886	529.408763168221	340.736453794581	1150.235269456900	458.308032195004	328.533692091449	1077.479764430726	332.444963845283	275.824130613312	1164.854224455717	228.523805688009	321.927386819096	1008.832787663571	403.290533807210	598.009917987181	934.700872282380	300.164597242191	658.360982179242	975.250093681947	205.875996138712	592.109797478886	839.106920806945	42.357486050179	555.816488823388	1009.200400305245	96.826196032464	596.410686678722	920.807632558688	36.471889894285	632.957109409730	1128.972787641532	45.539367140886	625.681160457240	1079.444638878632	48.959674276021	358.626350593326	1149.590708663234	54.943918029299	275.333475969577	1222.250238196719	131.991875620316	294.601907353331	1354.184878651966	102.719005134577	260.915840166897	898.314078996307	1089.608420867718	245.167864590154	931.022324359317	833.618847452296	212.187837879035	1103.796589572985	1104.333241374671	813.470134864311	1319.606834123581	963.476447582581	785.383780977729	
